<?xml version="1.0" encoding="utf-8"?>
<!-- Generator: Adobe Illustrator 16.0.0, SVG Export Plug-In . SVG Version: 6.00 Build 0)  -->
<!DOCTYPE svg PUBLIC "-//W3C//DTD SVG 1.1//EN" "http://www.w3.org/Graphics/SVG/1.1/DTD/svg11.dtd">
<svg version="1.1" id="Layer_1" xmlns="http://www.w3.org/2000/svg" xmlns:xlink="http://www.w3.org/1999/xlink" x="0px" y="0px"
	 width="470px" height="309.996px" viewBox="0 0 470 309.996" enable-background="new 0 0 470 309.996" xml:space="preserve">
<path fill="#555" stroke="#000000" stroke-miterlimit="10" d="M452.669,173.869c-9.815-10.918-24.951-18.797-45.405-23.637
	c9.121-3.177,17.001-7.049,23.637-11.61c6.634-4.561,12.057-9.641,16.274-15.239c4.215-5.599,7.324-11.574,9.33-17.935
	c2.002-6.356,3.006-12.991,3.006-19.904c0-12.301-2.073-23.429-6.221-33.381c-4.148-9.952-10.748-18.417-19.8-25.396
	c-9.057-6.979-20.733-12.369-35.04-16.172c-14.306-3.803-31.55-5.702-51.729-5.702H239.943v300.844l116.521-0.001
	c17.831,0,33.62-2.245,47.376-6.738c13.753-4.491,25.329-10.746,34.729-18.764c9.396-8.017,16.552-17.484,21.459-28.405
	c4.903-10.918,7.359-22.735,7.359-35.454C467.39,198.956,462.482,184.79,452.669,173.869z M302.145,52.164h44.576
	c8.709,0,16.241,0.728,22.6,2.177c6.357,1.451,11.613,3.769,15.76,6.946c4.146,3.18,7.221,7.396,9.229,12.647
	c2.002,5.254,3.006,11.608,3.006,19.072c0,7.328-1.211,13.581-3.629,18.766c-2.42,5.184-5.908,9.366-10.472,12.544
	c-4.563,3.181-10.229,5.495-17.001,6.946c-6.773,1.449-14.514,2.177-23.222,2.177h-40.847V52.164L302.145,52.164z M403.531,230.991
	c-1.523,5.183-4.219,9.78-8.086,13.787c-3.871,4.011-9.021,7.225-15.447,9.642c-6.428,2.42-14.617,3.628-24.568,3.628v0.001h-53.285
	v-82.312h52.871c9.396,0,17.313,0.9,23.738,2.695c6.428,1.797,11.643,4.389,15.654,7.772c4.008,3.391,6.91,7.5,8.708,12.337
	c1.795,4.84,2.694,10.299,2.694,16.379C405.811,220.452,405.051,225.807,403.531,230.991z"/>
<path fill="#6E3CAF" stroke="#000000" stroke-miterlimit="10" d="M150.936,4.891c-21.009,0-38.979,2.177-53.907,6.529
	c-14.928,4.354-27.161,10.402-36.698,18.144c-9.538,7.742-16.516,16.969-20.941,27.679c-4.422,10.714-6.635,22.496-6.635,35.354
	c0,9.95,1.419,19.386,4.25,28.301c2.835,8.916,6.946,17.037,12.337,24.36c5.391,7.328,12.025,13.823,19.904,19.489
	c7.879,5.669,16.866,10.23,26.954,13.687c-4.007,2.212-7.739,4.872-11.196,7.98c-3.454,3.109-6.563,6.812-9.33,11.092L5.594,305.735
	h56.188c10.506,0,18.109-4.008,22.807-12.025l57.225-92.265c2.352-3.593,4.943-6.22,7.775-7.879
	c2.834-1.658,7.017-2.487,12.544-2.487h21.148v114.656h56.663V4.891H150.936z M183.28,147.33h-31.93
	c-10.088,0-18.796-1.274-26.124-3.836c-7.325-2.555-13.338-6.081-18.038-10.574c-4.698-4.488-8.154-9.775-10.367-15.859
	c-2.209-6.08-3.317-12.715-3.317-19.904c0-14.234,4.736-25.295,14.203-33.173c9.469-7.879,23.879-11.818,43.229-11.818h32.344
	V147.33z"/>
</svg>
